<svg xmlns="http://www.w3.org/2000/svg" viewBox="0 0 1024 325" preserveAspectRatio="xMidYMax slice">
                <g fill="#FFF" fill-opacity=".4" transform="translate(55 42)">
                   <g id="snow-bottom-layer">
                      <ellipse cx="6" cy="91.5" rx="6" ry="5.5"/>
                      <ellipse cx="138" cy="110.5" rx="6" ry="5.5"/>
                      <ellipse cx="398" cy="55.5" rx="6" ry="5.5"/>
                      <ellipse cx="719" cy="284.5" rx="6" ry="5.5"/>
                      <ellipse cx="760" cy="155.5" rx="6" ry="5.5"/>
                      <ellipse cx="635" cy="159.5" rx="6" ry="5.5"/>
                      <ellipse cx="478" cy="235.5" rx="6" ry="5.5"/>
                      <ellipse cx="322" cy="214.5" rx="6" ry="5.5"/>
                      <ellipse cx="247" cy="234.5" rx="6" ry="5.5"/>
                      <ellipse cx="154" cy="25.5" rx="6" ry="5.5"/>
                      <ellipse cx="731" cy="273.5" rx="6" ry="5.5"/>
                      <ellipse cx="599" cy="74.5" rx="6" ry="5.5"/>
                      <ellipse cx="339" cy="19.5" rx="6" ry="5.5"/>
                      <ellipse cx="239" cy="4.5" rx="6" ry="5.5"/>
                      <ellipse cx="113" cy="63.5" rx="6" ry="5.5"/>
                      <ellipse cx="102" cy="223.5" rx="6" ry="5.5"/>
                      <ellipse cx="395" cy="155.5" rx="6" ry="5.5"/>
                      <ellipse cx="826" cy="43.5" rx="6" ry="5.5"/>
                      <ellipse cx="626" cy="54.5" rx="6" ry="5.5"/>
                      <ellipse cx="887" cy="66.5" rx="6" ry="5.5"/>
                      <ellipse cx="6" cy="241.5" rx="6" ry="5.5"/>
                      <ellipse cx="138" cy="142.5" rx="6" ry="5.5"/>
                      <ellipse cx="398" cy="287.5" rx="6" ry="5.5"/>
                      <ellipse cx="719" cy="16.5" rx="6" ry="5.5"/>
                      <ellipse cx="760" cy="87.5" rx="6" ry="5.5"/>
                      <ellipse cx="635" cy="191.5" rx="6" ry="5.5"/>
                      <ellipse cx="478" cy="167.5" rx="6" ry="5.5"/>
                      <ellipse cx="322" cy="246.5" rx="6" ry="5.5"/>
                      <ellipse cx="247" cy="166.5" rx="6" ry="5.5"/>
                      <ellipse cx="154" cy="157.5" rx="6" ry="5.5"/>
                      <ellipse cx="599" cy="106.5" rx="6" ry="5.5"/>
                      <ellipse cx="339" cy="51.5" rx="6" ry="5.5"/>
                      <ellipse cx="239" cy="236.5" rx="6" ry="5.5"/>
                      <ellipse cx="113" cy="95.5" rx="6" ry="5.5"/>
                      <ellipse cx="102" cy="255.5" rx="6" ry="5.5"/>
                      <ellipse cx="395" cy="87.5" rx="6" ry="5.5"/>
                      <ellipse cx="826" cy="175.5" rx="6" ry="5.5"/>
                      <ellipse cx="626" cy="286.5" rx="6" ry="5.5"/>
                      <ellipse cx="187" cy="98.5" rx="6" ry="5.5"/>
                   </g>
                </g>
                <g fill="#fff" fill-opacity=".6" transform="translate(65 63)">
                   <g id="snow-top-layer">
                      <circle cx="8" cy="76" r="8"/>
                      <circle cx="189" cy="125" r="8"/>
                      <circle cx="548" cy="144" r="8"/>
                      <circle cx="685" cy="195" r="8"/>
                      <circle cx="874" cy="138" r="8" transform="rotate(180 874 1438)"/>
                      <circle cx="657" cy="256" r="8" transform="rotate(180 657 1256)"/>
                      <circle cx="443" cy="72" r="8" transform="rotate(180 443 1372)"/>
                      <circle cx="339" cy="107" r="8" transform="rotate(180 339 1107)"/>
                      <circle cx="24" cy="205" r="8" transform="rotate(180 24 1305)"/>
                      <circle cx="8" cy="8" r="8"/>
                      <circle cx="189" cy="157" r="8"/>
                      <circle cx="548" cy="76" r="8"/>
                      <circle cx="685" cy="147" r="8"/>
                      <circle cx="858" cy="141" r="8"/>
                      <circle cx="874" cy="70" r="8" transform="rotate(180 874 670)"/>
                      <circle cx="657" cy="288" r="8" transform="rotate(180 657 488)"/>
                      <circle cx="443" cy="194" r="8" transform="rotate(180 443 604)"/>
                      <circle cx="339" cy="239" r="8" transform="rotate(180 339 339)"/>
                      <circle cx="24" cy="137" r="8" transform="rotate(180 24 537)"/>
                   </g>
                </g>
            </svg>