<svg xmlns="http://www.w3.org/2000/svg" viewBox="0 0 1024 500" preserveAspectRatio="xMidYMax slice">
                <g fill="#FFF" fill-opacity=".5" transform="translate(55 42)">
                   <g id="snow-bottom-layer">
                      <ellipse cx="6" cy="91.5" rx="6" ry="5.5"/>
                      <ellipse cx="138" cy="110.5" rx="6" ry="5.5"/>
                      <ellipse cx="398" cy="055.5" rx="6" ry="5.5"/>
                      <ellipse cx="719" cy="284.5" rx="6" ry="5.5"/>
                      <ellipse cx="760" cy="155.5" rx="6" ry="5.5"/>
                      <ellipse cx="635" cy="459.5" rx="6" ry="5.5"/>
                      <ellipse cx="478" cy="335.5" rx="6" ry="5.5"/>
                      <ellipse cx="322" cy="414.5" rx="6" ry="5.5"/>
                      <ellipse cx="247" cy="234.5" rx="6" ry="5.5"/>
                      <ellipse cx="154" cy="425.5" rx="6" ry="5.5"/>
                      <ellipse cx="731" cy="273.5" rx="6" ry="5.5"/>
                      <ellipse cx="599" cy="474.5" rx="6" ry="5.5"/>
                      <ellipse cx="339" cy="19.5" rx="6" ry="5.5"/>
                      <ellipse cx="239" cy="4.5" rx="6" ry="5.5"/>
                      <ellipse cx="113" cy="263.5" rx="6" ry="5.5"/>
                      <ellipse cx="102" cy="223.5" rx="6" ry="5.5"/>
                      <ellipse cx="395" cy="155.5" rx="6" ry="5.5"/>
                      <ellipse cx="826" cy="343.5" rx="6" ry="5.5"/>
                      <ellipse cx="626" cy="54.5" rx="6" ry="5.5"/>
                      <ellipse cx="887" cy="366.5" rx="6" ry="5.5"/>
                      <ellipse cx="6" cy="241.5" rx="6" ry="5.5"/>
                      <ellipse cx="138" cy="342.5" rx="6" ry="5.5"/>
                      <ellipse cx="398" cy="287.5" rx="6" ry="5.5"/>
                      <ellipse cx="719" cy="16.5" rx="6" ry="5.5"/>
                      <ellipse cx="760" cy="387.5" rx="6" ry="5.5"/>
                      <ellipse cx="635" cy="491.5" rx="6" ry="5.5"/>
                      <ellipse cx="478" cy="167.5" rx="6" ry="5.5"/>
                      <ellipse cx="322" cy="446.5" rx="6" ry="5.5"/>
                      <ellipse cx="247" cy="466.5" rx="6" ry="5.5"/>
                      <ellipse cx="154" cy="157.5" rx="6" ry="5.5"/>
                      <ellipse cx="599" cy="106.5" rx="6" ry="5.5"/>
                      <ellipse cx="339" cy="51.5" rx="6" ry="5.5"/>
                      <ellipse cx="239" cy="236.5" rx="6" ry="5.5"/>
                      <ellipse cx="113" cy="95.5" rx="6" ry="5.5"/>
                      <ellipse cx="102" cy="455.5" rx="6" ry="5.5"/>
                      <ellipse cx="395" cy="387.5" rx="6" ry="5.5"/>
                      <ellipse cx="826" cy="175.5" rx="6" ry="5.5"/>
                      <ellipse cx="626" cy="286.5" rx="6" ry="5.5"/>
                      <ellipse cx="187" cy="498.5" rx="6" ry="5.5"/>
                   </g>
                </g>
                <g fill="#fff" fill-opacity=".6" transform="translate(65 63)">
                   <g id="snow-top-layer">
                      <circle cx="8" cy="776" r="8"/>
                      <circle cx="189" cy="425" r="8"/>
                      <circle cx="548" cy="444" r="8"/>
                      <circle cx="685" cy="495" r="8"/>
                      <circle cx="874" cy="438" r="8" transform="rotate(180 874 1438)"/>
                      <circle cx="657" cy="256" r="8" transform="rotate(180 657 1256)"/>
                      <circle cx="443" cy="372" r="8" transform="rotate(180 443 1372)"/>
                      <circle cx="339" cy="107" r="8" transform="rotate(180 339 1107)"/>
                      <circle cx="24" cy="305" r="8" transform="rotate(180 24 1305)"/>
                      <circle cx="8" cy="8" r="8"/>
                      <circle cx="189" cy="157" r="8"/>
                      <circle cx="548" cy="76" r="8"/>
                      <circle cx="685" cy="347" r="8"/>
                      <circle cx="858" cy="141" r="8"/>
                      <circle cx="874" cy="70" r="8" transform="rotate(180 874 670)"/>
                      <circle cx="657" cy="488" r="8" transform="rotate(180 657 488)"/>
                      <circle cx="443" cy="494" r="8" transform="rotate(180 443 604)"/>
                      <circle cx="339" cy="339" r="8" transform="rotate(180 339 339)"/>
                      <circle cx="24" cy="137" r="8" transform="rotate(180 24 537)"/>
                   </g>
                </g>
            </svg>